<svg xmlns="http://www.w3.org/2000/svg" xmlns:xlink="http://www.w3.org/1999/xlink" width="355" height="318" viewBox="0 0 355 318">
  <defs>
    <linearGradient id="linear-gradient" x1="0.5" x2="0.5" y2="1" gradientUnits="objectBoundingBox">
      <stop offset="0" stop-color="#110909"/>
      <stop offset="0.486" stop-color="#094863" stop-opacity="0"/>
      <stop offset="1" stop-color="#605a5a"/>
    </linearGradient>
    <clipPath id="clip-Logo">
      <rect width="355" height="318"/>
    </clipPath>
  </defs>
  <g id="Logo" clip-path="url(#clip-Logo)">
    <g id="Path_4" data-name="Path 4" transform="translate(23 23)" fill="url(#linear-gradient)">
      <path d="M 228 271.5 L 81 271.5 C 75.53784942626953 271.5 70.07926940917969 270.9497375488281 64.77592468261719 269.864501953125 C 59.60757827758789 268.8069152832031 54.52384567260742 267.2288513183594 49.66592407226563 265.1741027832031 C 44.89607620239258 263.1566467285156 40.29553985595703 260.6595458984375 35.99203872680664 257.7521667480469 C 31.72930717468262 254.872314453125 27.72084617614746 251.5650024414063 24.07792282104492 247.922119140625 C 20.43499946594238 244.2791900634766 17.12769317626953 240.2706909179688 14.24784660339355 236.0079650878906 C 11.34046173095703 231.7044982910156 8.84334659576416 227.1039276123047 6.825884819030762 222.3340759277344 C 4.771153926849365 217.4761505126953 3.193076848983765 212.3924255371094 2.135499954223633 207.2240753173828 C 1.050269246101379 201.9207305908203 0.5 196.462158203125 0.5 191 L 0.5 81 C 0.5 75.53784942626953 1.050269246101379 70.07926940917969 2.135499954223633 64.77592468261719 C 3.193076848983765 59.60757827758789 4.771153926849365 54.52384567260742 6.825884819030762 49.66592407226563 C 8.84334659576416 44.89607620239258 11.34046173095703 40.29553985595703 14.24784660339355 35.99203872680664 C 17.12769317626953 31.72930717468262 20.43499946594238 27.72084617614746 24.07792282104492 24.07792282104492 C 27.72084617614746 20.43499946594238 31.72930717468262 17.12769317626953 35.99203872680664 14.24784660339355 C 40.29553985595703 11.34046173095703 44.89607620239258 8.84334659576416 49.66592407226563 6.825884819030762 C 54.52384567260742 4.771153926849365 59.60757827758789 3.193076848983765 64.77592468261719 2.135499954223633 C 70.07926940917969 1.050269246101379 75.53784942626953 0.5 81 0.5 L 228 0.5 C 233.462158203125 0.5 238.9207305908203 1.050269246101379 244.2240753173828 2.135499954223633 C 249.3924255371094 3.193076848983765 254.4761505126953 4.771153926849365 259.3340759277344 6.825884819030762 C 264.1039123535156 8.84334659576416 268.7044982910156 11.34046173095703 273.0079650878906 14.24784660339355 C 277.2706909179688 17.12769317626953 281.2792053222656 20.43499946594238 284.922119140625 24.07792282104492 C 288.5650024414063 27.72084617614746 291.872314453125 31.72930717468262 294.7521667480469 35.99203872680664 C 297.6595458984375 40.29553985595703 300.1566467285156 44.89607620239258 302.1741027832031 49.66592407226563 C 304.2288513183594 54.52384567260742 305.8069152832031 59.60757827758789 306.864501953125 64.77592468261719 C 307.9497375488281 70.07926940917969 308.5 75.53784942626953 308.5 81 L 308.5 191 C 308.5 196.462158203125 307.9497375488281 201.9207305908203 306.864501953125 207.2240753173828 C 305.8069152832031 212.3924255371094 304.2288513183594 217.4761505126953 302.1741027832031 222.3340759277344 C 300.1566467285156 227.1039276123047 297.6595458984375 231.7044982910156 294.7521667480469 236.0079650878906 C 291.872314453125 240.2706909179688 288.5650024414063 244.2791900634766 284.922119140625 247.922119140625 C 281.2792053222656 251.5650024414063 277.2706909179688 254.872314453125 273.0079650878906 257.7521667480469 C 268.7044982910156 260.6595458984375 264.1039123535156 263.1566467285156 259.3340759277344 265.1741027832031 C 254.4761505126953 267.2288513183594 249.3924255371094 268.8069152832031 244.2240753173828 269.864501953125 C 238.9207305908203 270.9497375488281 233.462158203125 271.5 228 271.5 Z" stroke="none"/>
      <path d="M 81 1 C 75.57145690917969 1 70.14662170410156 1.546844482421875 64.87615966796875 2.625335693359375 C 59.74015808105469 3.676300048828125 54.688232421875 5.2445068359375 49.86068725585938 7.286376953125 C 45.12057495117188 9.291259765625 40.54864501953125 11.77285766601563 36.27191162109375 14.66213989257813 C 32.03558349609375 17.52415466308594 28.05184936523438 20.81103515625 24.43145751953125 24.43145751953125 C 20.81103515625 28.05184936523438 17.52413940429688 32.03558349609375 14.66213989257813 36.27192687988281 C 11.77285766601563 40.54866027832031 9.291259765625 45.12057495117188 7.286376953125 49.86068725585938 C 5.2445068359375 54.688232421875 3.676300048828125 59.74015808105469 2.625335693359375 64.87615966796875 C 1.546844482421875 70.14662170410156 1 75.57145690917969 1 81 L 1 191 C 1 196.4285278320313 1.546844482421875 201.8533935546875 2.625335693359375 207.1238403320313 C 3.676300048828125 212.2598419189453 5.2445068359375 217.311767578125 7.286376953125 222.1393127441406 C 9.291259765625 226.8794250488281 11.77285766601563 231.4513092041016 14.66213989257813 235.7280426025391 C 17.52413940429688 239.9644165039063 20.81103515625 243.9481201171875 24.43145751953125 247.5685424804688 C 28.0518798828125 251.18896484375 32.03558349609375 254.4757995605469 36.27191162109375 257.3378601074219 C 40.54864501953125 260.2271423339844 45.12057495117188 262.7086791992188 49.86068725585938 264.713623046875 C 54.688232421875 266.7554931640625 59.74015808105469 268.3236999511719 64.87615966796875 269.3746643066406 C 70.14662170410156 270.4531555175781 75.57145690917969 271 81 271 L 228 271 C 233.4285278320313 271 238.8533935546875 270.4531555175781 244.1238403320313 269.3746643066406 C 249.2598419189453 268.3236999511719 254.311767578125 266.7554931640625 259.1393127441406 264.713623046875 C 263.8794250488281 262.7086791992188 268.4513549804688 260.2271423339844 272.7280883789063 257.3378601074219 C 276.9644165039063 254.4757995605469 280.9481201171875 251.18896484375 284.5685424804688 247.5685424804688 C 288.18896484375 243.9481201171875 291.475830078125 239.9644165039063 294.3378601074219 235.7280426025391 C 297.2271423339844 231.4513092041016 299.708740234375 226.8794250488281 301.713623046875 222.1393127441406 C 303.7554931640625 217.311767578125 305.3236999511719 212.2598419189453 306.3746643066406 207.1238403320313 C 307.4531555175781 201.8533935546875 308 196.4285278320313 308 191 L 308 81 C 308 75.57145690917969 307.4531555175781 70.14662170410156 306.3746643066406 64.87615966796875 C 305.3236999511719 59.74015808105469 303.7554931640625 54.688232421875 301.713623046875 49.86068725585938 C 299.708740234375 45.12057495117188 297.2271423339844 40.54866027832031 294.3378601074219 36.27192687988281 C 291.475830078125 32.03558349609375 288.18896484375 28.05184936523438 284.5685424804688 24.43145751953125 C 280.9481506347656 20.81103515625 276.9644165039063 17.52415466308594 272.7280883789063 14.66213989257813 C 268.4513549804688 11.77285766601563 263.8794250488281 9.291259765625 259.1393127441406 7.286376953125 C 254.311767578125 5.2445068359375 249.2598419189453 3.676300048828125 244.1238403320313 2.625335693359375 C 238.8533935546875 1.546844482421875 233.4285278320313 1 228 1 L 81 1 M 81 0 L 228 0 C 272.7350769042969 0 309 36.26492309570313 309 81 L 309 191 C 309 235.7350463867188 272.7350769042969 272 228 272 L 81 272 C 36.26492309570313 272 0 235.7350463867188 0 191 L 0 81 C 0 36.26492309570313 36.26492309570313 0 81 0 Z" stroke="none" fill="#707070"/>
    </g>
    <line id="Line_1" data-name="Line 1" x2="195" transform="translate(77.5 253.5)" fill="none" stroke="#707070" stroke-linecap="round" stroke-width="20"/>
    <line id="Line_3" data-name="Line 3" y2="133" transform="translate(177.5 92.5)" fill="none" stroke="#707070" stroke-linecap="round" stroke-width="10"/>
    <g id="D" transform="translate(30)">
      <line id="Line_2" data-name="Line 2" y2="133" transform="translate(123.5 93.5)" fill="none" stroke="#707070" stroke-linecap="round" stroke-width="10"/>
      <path id="Path_1" data-name="Path 1" d="M167.708,75.521c-125,59.375,0,84.375,0,84.375" transform="translate(-44 67)" fill="none" stroke="#707070" stroke-width="10"/>
    </g>
    <path id="Path_2" data-name="Path 2" d="M112.153,75.521c125,59.375,0,84.375,0,84.375" transform="translate(65 17)" fill="none" stroke="#707070" stroke-width="10"/>
    <path id="Path_3" data-name="Path 3" d="M112.153,75.521c22.375,10.628,36.74,20.155,45.379,28.768,38.876,38.756-45.379,55.607-45.379,55.607" transform="translate(65 65)" fill="none" stroke="#707070" stroke-width="10"/>
  </g>
</svg>
